<svg xmlns="http://www.w3.org/2000/svg" fill="none" viewBox="0 0 200 40" class="text-white sm:pl-4 w-[136px] sm:w-[150px] md:w-[160px] h-[40px] sm:h-[30px] md:h-[32px]"><path fill="currentColor" d="m8.61 8.434 1.847-2.771v33.995H8.61zm-4.337 5.358 1.88-2.956v28.822h-1.88zM0 19.704l1.88-2.956v22.91H0V19.703ZM12.914 2.961 14.762.305v39.353h-1.848zM18.83 25.09h3.365l10.877 14.605h5.272L26.618 24.242c1.63 0 5.88-1.879 7.12-4.242s1.63-4.525 1.63-7.636c0-3.878-.838-6.295-3.024-8.908Q28.951.306 22.951.306H18.83v2.666h3.577q8.484 0 8.484 9.574 0 5.333-2 7.575c-2 2.242-3.313 2.242-5.939 2.242H18.83zM41.75 6.382v33.313h19.065v-2.46h-15.17V24.012h12.863v-2.357H45.644V8.842h14.043v-2.46zm32.872 33.313c-2.157 0-4-.273-5.427-.904q-2.14-.946-3.185-1.99-.996-1.095-.996-1.295l1.245-1.94q0 .148.945 1.144.945.946 2.738 1.792c1.228.53 2.736.79 4.495.79 2.09 0 3.717-.591 4.912-1.786q1.791-1.84 1.792-4.529 0-1.842-.896-3.086a6.8 6.8 0 0 0-2.24-1.99q-1.294-.748-3.534-1.693-2.588-1.045-4.18-1.991-1.594-.945-2.688-2.588-1.095-1.692-1.095-4.28 0-4.082 2.588-6.471c1.725-1.626 3.932-2.579 6.819-2.579 1.427 0 2.803.356 3.932.787q1.742.597 2.787 1.344 1.045.697 1.045.796l-.498 2.19q0-.099-.995-.796-.996-.697-2.539-1.294-1.542-.597-3.434-.597-2.787 0-4.38 1.543t-1.593 4.18q0 1.842.847 3.086a7.2 7.2 0 0 0 2.19 1.942q1.343.746 3.534 1.642 2.637 1.095 4.23 2.09 1.593.946 2.688 2.688 1.145 1.743 1.145 4.48t-1.294 4.877q-1.245 2.092-3.584 3.285c-1.56.797-3.317 1.153-5.374 1.153M98.069 8.842v30.853h3.895V8.842h9.532v-2.46H88.587v2.46zm29.084 30.853V6.382h3.895v33.313zm9.917-33.313v33.313h2.818V12.89l-.256-1.589h.051l17.733 28.393h3.383V6.382h-2.819v26.24l.153 1.23-17.015-27.47zm29.735 33.313V6.382h4.049l17.015 27.47-.153-1.23V6.382h2.818v33.313h-3.382l-17.733-28.393h-.051l.256 1.589v26.804zM200 35.007h-4.651v4.65H200z"></path></svg>
