<svg xmlns="http://www.w3.org/2000/svg" width="120" height="36" fill="none" class="xs:hidden"><g fill="currentColor"><path d="M106.201 18.907c2.674.025 4.816-2.036 4.857-4.673.041-2.616-2.076-4.78-4.719-4.825-2.632-.05-4.8 2.051-4.846 4.693-.056 2.642 2.045 4.78 4.708 4.805m-4.652 8.444c.108 2.351.225 4.8-1.988 6.596-1.979 1.603-4.346 2.39-6.973 2.564-.029-.487-.016-.88-.016-1.26-.005-6.969-.06-13.942.016-20.91.082-7.248 4.984-12.74 12.09-13.717 7.53-1.038 14.452 4.642 15.26 12.51.736 7.162-5.158 14.146-12.423 14.563-1.917.112-3.849-.209-5.966-.346M75.36 18.907c2.674.025 4.816-2.036 4.857-4.673.041-2.616-2.076-4.78-4.718-4.825-2.633-.05-4.8 2.051-4.847 4.693-.056 2.642 2.045 4.78 4.708 4.805m-4.65 8.443c.107 2.351.224 4.8-1.99 6.596-1.977 1.603-4.345 2.39-6.972 2.564-.029-.487-.016-.88-.016-1.26-.004-6.969-.06-13.942.016-20.91C61.83 7.092 66.732 1.6 73.838.623c7.53-1.038 14.452 4.642 15.26 12.51.736 7.162-5.158 14.146-12.423 14.563-1.917.112-3.849-.209-5.965-.346M27.035.501c0 5.746.462 11.042-.117 16.22-.758 6.795-7.358 11.65-14.13 11.174C5.754 27.399.187 21.718.044 14.763-.046 10.17.03 5.076.03.504c3.016 0 6.793 1.85 8.14 4.392.341.643.514 1.432.55 2.161.111 2.375.122 4.754.183 7.134.07 2.86 2.054 4.895 4.733 4.88 2.706-.015 4.694-2.06 4.75-4.886.04-2.075.188-4.15.086-6.221-.137-2.815 1.261-4.668 3.59-5.817 1.5-.744 3.208-1.079 4.973-1.646m3.994 27.424c0-5.745-.463-11.04.116-16.22C31.898 4.911 38.498.056 45.271.532c7.032.496 12.6 6.171 12.742 13.132.091 4.592.015 9.189.015 13.755-3.091.42-6.793-1.346-8.14-3.888-.341-.643-.514-1.433-.55-2.162-.111-2.374-.122-4.753-.183-7.133-.07-2.86-2.054-4.895-4.734-4.88-2.704.015-4.693 2.06-4.749 4.885-.04 2.076-.188 4.152-.086 6.222.137 2.815-1.26 4.668-3.59 5.817-1.5.744-3.208 1.079-4.968 1.645Z"></path><path d="M44.393 19.735c-1.836-.02-3.412-1.62-3.356-3.418.05-1.726 1.642-3.214 3.412-3.194 1.835.025 3.432 1.635 3.37 3.407-.06 1.706-1.677 3.225-3.426 3.205"></path></g></svg>